<?xml version="1.0" encoding="UTF-8"?>
<svg version="1.1" xmlns="http://www.w3.org/2000/svg" width="500" height="500">
<path d="M0 0 C9.52744095 -0.09284025 19.05472523 -0.16383586 28.58252048 -0.20724869 C33.00708095 -0.22808885 37.43133103 -0.25634072 41.85571289 -0.30175781 C46.12863639 -0.34534372 50.40126208 -0.36916396 54.67439079 -0.37950897 C56.30143863 -0.38687756 57.92847088 -0.40126678 59.55539131 -0.42292023 C61.8413986 -0.45212497 64.12618853 -0.45594908 66.41235352 -0.45410156 C67.71141129 -0.46298401 69.01046906 -0.47186646 70.34889221 -0.48101807 C75.88501242 0.24834244 79.66718553 2.28016136 83.15234375 6.77734375 C83.74144531 7.82019531 84.33054687 8.86304688 84.9375 9.9375 C85.6219459 11.1187504 86.30685329 12.29973351 86.9921875 13.48046875 C87.32959961 14.07520996 87.66701172 14.66995117 88.01464844 15.28271484 C89.46610283 17.81233085 91.01660044 20.27722992 92.5625 22.75 C100.33221044 35.37387139 107.89432501 48.12615381 115.49609375 60.8515625 C116.30675293 62.20689087 116.30675293 62.20689087 117.13378906 63.58959961 C118.13836468 65.26931192 119.14170531 66.94976374 120.14355469 68.63110352 C122.12502042 71.94309308 124.11728149 75.20170898 126.33203125 78.36328125 C128 81 128 81 128 84 C128.66 84 129.32 84 130 84 C130.81837442 85.41328129 131.62946219 86.83078346 132.4375 88.25 C132.88996094 89.03890625 133.34242188 89.8278125 133.80859375 90.640625 C134.89311602 92.78833468 135.53148716 94.65205061 136 97 C136.66 97 137.32 97 138 97 C138.35191406 97.66644531 138.70382813 98.33289063 139.06640625 99.01953125 C142.74775712 105.89202701 146.7519106 112.46590171 151 119 C154.70398606 124.72650521 158.30417674 130.44783271 161.56640625 136.4375 C166.09387734 144.53020037 171.01403751 152.41717899 175.875 160.3125 C176.83212891 161.87291016 176.83212891 161.87291016 177.80859375 163.46484375 C179.48303342 166.18235108 181.19346134 168.87541608 182.91015625 171.56640625 C183.91938726 173.16919753 184.9285025 174.77206171 185.9375 176.375 C186.4226709 177.12434814 186.9078418 177.87369629 187.40771484 178.64575195 C190.17838394 183.07635311 192.00617604 186.62684612 192 192 C190.01209893 198.14508104 186.44150493 203.54906835 183.125 209.0625 C181.95806226 211.01676524 180.79140389 212.97119733 179.625 214.92578125 C179.026875 215.92561035 178.42875 216.92543945 177.8125 217.95556641 C176.02661293 220.95529859 174.25995303 223.96545913 172.5 226.98046875 C171.93394043 227.94782959 171.36788086 228.91519043 170.78466797 229.91186523 C169.71309267 231.74432519 168.64421042 233.57836387 167.57861328 235.41430664 C164.95974881 239.87671944 162.24285673 244.26047435 159.3671875 248.5625 C158.8191748 249.38363281 158.27116211 250.20476562 157.70654297 251.05078125 C155.82696714 253.19763868 154.77953905 253.77394244 152 254.25 C148.33946578 253.69707036 146.84628461 252.10881474 144.6875 249.1875 C143.41960103 247.14858138 142.19637501 245.08169253 141 243 C140.2036027 241.63774145 139.40669352 240.27578207 138.609375 238.9140625 C136.75725985 235.73362433 134.92494645 232.54240717 133.09765625 229.34765625 C128.09524573 220.65055963 122.80087776 212.12748704 117.56591797 203.56933594 C115.50236277 200.18348391 113.46716892 196.78123125 111.4375 193.375 C107.25283474 186.35678109 102.9379092 179.42007566 98.60327148 172.49365234 C95.6408809 167.73870341 92.81822331 162.94058863 90.12597656 158.02783203 C88.58648807 155.25528402 86.92865133 152.56514637 85.25 149.875 C82.24197336 145.02810424 79.29211833 140.1520378 76.375 135.25 C73.92574052 131.13948557 71.44016721 127.08437431 68.75 123.125 C66.43508785 119.71588074 64.39320357 116.23304692 62.43359375 112.609375 C61.28486262 110.51849655 60.10962136 108.45235619 58.91015625 106.390625 C58.54390137 105.75922607 58.17764648 105.12782715 57.80029297 104.47729492 C57.06681442 103.21519044 56.33022934 101.95488549 55.59033203 100.6965332 C53 96.22226675 53 96.22226675 53 94 C52.34 94 51.68 94 51 94 C50.18162558 92.58671871 49.37053781 91.16921654 48.5625 89.75 C48.11003906 88.96109375 47.65757812 88.1721875 47.19140625 87.359375 C46.10688398 85.21166532 45.46851284 83.34794939 45 81 C44.34 81 43.68 81 43 81 C42.6596875 80.35675781 42.319375 79.71351563 41.96875 79.05078125 C37.92711047 71.51570329 33.52297287 64.25382442 29 57 C27.66521808 54.83422544 26.33187596 52.66756284 25 50.5 C24.33871094 49.42621094 23.67742187 48.35242188 22.99609375 47.24609375 C21.6728694 45.09423576 20.35252123 42.94060631 19.03515625 40.78515625 C16.23780106 36.21521956 13.44211372 31.65170375 10.49609375 27.17578125 C9.87238892 26.22433228 9.87238892 26.22433228 9.23608398 25.25366211 C8.42782318 24.02522701 7.61375214 22.80059012 6.79321289 21.58032227 C4 17.33160431 4 17.33160431 4 14 C3.34 14 2.68 14 2 14 C1.26998417 12.6153832 0.56675418 11.21662355 -0.125 9.8125 C-0.51945312 9.03519531 -0.91390625 8.25789062 -1.3203125 7.45703125 C-2.19482214 4.29572915 -1.30137335 2.92915673 0 0 Z " fill="#FD2E52" transform="translate(98,130)"/>
<path d="M0 0 C-0.03287583 2.72869407 -0.56397771 5.2966618 -1 8 C-1.66 8 -2.32 8 -3 8 C-3.10570312 8.55558594 -3.21140625 9.11117187 -3.3203125 9.68359375 C-4.13517586 12.46068554 -5.38183247 14.57984106 -6.875 17.0625 C-7.50019531 18.11308594 -8.12539063 19.16367188 -8.76953125 20.24609375 C-9.12096191 20.83503418 -9.47239258 21.42397461 -9.83447266 22.03076172 C-12.57042173 26.65333507 -15.2335508 31.31888227 -17.91552734 35.97290039 C-20.72644821 40.83740353 -23.58658376 45.6693214 -26.48461914 50.48242188 C-27.98383128 52.97313809 -29.47533621 55.46831402 -30.96484375 57.96484375 C-40.71591831 74.28333076 -40.71591831 74.28333076 -45.79296875 82.00390625 C-47.14977685 84.08217493 -47.14977685 84.08217493 -48 87 C-48.66 87 -49.32 87 -50 87 C-50 87.99 -50 88.98 -50 90 C-50.66 90 -51.32 90 -52 90 C-52.17015625 90.84111328 -52.17015625 90.84111328 -52.34375 91.69921875 C-54.99281161 100.98670262 -61.71143596 109.61255239 -66.70214844 117.85449219 C-69.0598679 121.75209162 -71.40472405 125.65740511 -73.75 129.5625 C-74.24773926 130.38935303 -74.74547852 131.21620605 -75.25830078 132.06811523 C-78.04296712 136.70289232 -80.79634772 141.35386638 -83.515625 146.02734375 C-84.38815918 147.52189087 -84.38815918 147.52189087 -85.27832031 149.04663086 C-86.40269912 150.97539014 -87.52207121 152.90707925 -88.63574219 154.84204102 C-89.14782227 155.71916748 -89.65990234 156.59629395 -90.1875 157.5 C-90.85845703 158.66015625 -90.85845703 158.66015625 -91.54296875 159.84375 C-93.7205932 163.06640065 -95.8468174 165.49733066 -99.4375 167.0625 C-102 167 -102 167 -104.359375 164.94140625 C-107.22194108 161.75277865 -109.52797601 158.48614441 -111.8125 154.875 C-112.21919922 154.25496094 -112.62589844 153.63492188 -113.04492188 152.99609375 C-116 148.37723214 -116 148.37723214 -116 145 C-116.66 145 -117.32 145 -118 145 C-118.54269531 144.03578125 -119.08539063 143.0715625 -119.64453125 142.078125 C-120.3670425 140.80200123 -121.08970683 139.52596412 -121.8125 138.25 C-122.34713867 137.29867187 -122.34713867 137.29867187 -122.89257812 136.328125 C-124.40681472 133.66084586 -125.8752391 131.16044639 -127.76171875 128.734375 C-129 127 -129 127 -129 124 C-129.66 124 -130.32 124 -131 124 C-132.62109375 121.5859375 -132.62109375 121.5859375 -134.4375 118.375 C-135.03433594 117.33085937 -135.63117188 116.28671875 -136.24609375 115.2109375 C-136.82488281 114.15132813 -137.40367187 113.09171875 -138 112 C-138.60972656 111.04351562 -139.21945312 110.08703125 -139.84765625 109.1015625 C-141.39312632 104.94189052 -140.62146294 101.97102885 -139 98 C-137.6460305 95.60347399 -136.31294938 93.42874095 -134.75 91.1875 C-133.9293538 89.96290117 -133.1116618 88.73631767 -132.296875 87.5078125 C-131.90048828 86.91129883 -131.50410156 86.31478516 -131.09570312 85.70019531 C-129.60363257 83.38495927 -128.29204101 80.99415022 -127 78.5625 C-123.26479698 71.54884432 -119.12588122 64.78769412 -115 58 C-114.45714355 57.10571289 -113.91428711 56.21142578 -113.35498047 55.29003906 C-102.20889463 36.93214277 -102.20889463 36.93214277 -98.359375 30.7421875 C-97.79682007 29.83654053 -97.79682007 29.83654053 -97.22290039 28.91259766 C-96.2700669 27.38258208 -95.31296845 25.85522474 -94.35546875 24.328125 C-92.87680143 21.97048064 -92.87680143 21.97048064 -92 19 C-91.34 19 -90.68 19 -90 19 C-89.85304688 18.195625 -89.85304688 18.195625 -89.703125 17.375 C-88.7921528 14.29793834 -87.34906459 11.7809819 -85.75 9 C-85.16734375 7.96875 -84.5846875 6.9375 -83.984375 5.875 C-81.044534 1.61570281 -78.12186646 -1.05698882 -73 -2 C-71.00127664 -2.11883879 -68.99926384 -2.186315 -66.99731445 -2.22119141 C-65.78537918 -2.24436432 -64.57344391 -2.26753723 -63.32478333 -2.29141235 C-62.01748764 -2.3112619 -60.71019196 -2.33111145 -59.36328125 -2.3515625 C-58.0004994 -2.37470667 -56.63772172 -2.3980972 -55.27494812 -2.42172241 C-52.41779571 -2.47012963 -49.56061432 -2.51505064 -46.70336914 -2.55761719 C-43.0632071 -2.61219279 -39.42328016 -2.67610587 -35.78332233 -2.74279213 C-32.96675114 -2.79320706 -30.15011203 -2.83818605 -27.33342552 -2.88163376 C-25.34554589 -2.91334833 -23.35774463 -2.94985931 -21.36994934 -2.98648071 C-3.23564673 -3.23564673 -3.23564673 -3.23564673 0 0 Z " fill="#FD2F53" transform="translate(403,132)"/>
<path d="M0 0 C9.52744095 -0.09284025 19.05472523 -0.16383586 28.58252048 -0.20724869 C33.00708095 -0.22808885 37.43133103 -0.25634072 41.85571289 -0.30175781 C46.12863639 -0.34534372 50.40126208 -0.36916396 54.67439079 -0.37950897 C56.30143863 -0.38687756 57.92847088 -0.40126678 59.55539131 -0.42292023 C61.8413986 -0.45212497 64.12618853 -0.45594908 66.41235352 -0.45410156 C67.71141129 -0.46298401 69.01046906 -0.47186646 70.34889221 -0.48101807 C74.91232701 0.12019524 77.22191674 1.40073941 81 4 C82.4375 6.75 82.4375 6.75 83 9 C82.01 9 81.02 9 80 9 C80 8.01 80 7.02 80 6 C75.57959195 4.32013572 71.82428406 3.72153531 67.10546875 3.62109375 C65.82091797 3.58693359 64.53636719 3.55277344 63.21289062 3.51757812 C61.87110685 3.49023488 60.52930951 3.46354984 59.1875 3.4375 C56.5349363 3.37973264 53.88281011 3.31430828 51.23046875 3.24609375 C49.47319458 3.21020142 49.47319458 3.21020142 47.68041992 3.17358398 C45 3 45 3 44 2 C42.65985714 1.90215498 41.31465651 1.87202023 39.97094727 1.87060547 C39.11658585 1.86745331 38.26222443 1.86430115 37.38197327 1.86105347 C36.45283615 1.8630777 35.52369904 1.86510193 34.56640625 1.8671875 C33.14399879 1.86575241 33.14399879 1.86575241 31.69285583 1.86428833 C29.68285048 1.86360637 27.67284294 1.86546177 25.6628418 1.86962891 C22.5792141 1.87497104 19.49573247 1.8696875 16.41210938 1.86328125 C14.46354134 1.86394214 12.5149734 1.86522354 10.56640625 1.8671875 C9.63929337 1.86516327 8.71218048 1.86313904 7.75697327 1.86105347 C6.89945969 1.86420563 6.04194611 1.86735779 5.15844727 1.87060547 C4.40201431 1.87140106 3.64558136 1.87219666 2.8662262 1.87301636 C0.90702559 1.88587771 0.90702559 1.88587771 -1 3 C-0.67 2.01 -0.34 1.02 0 0 Z " fill="#F29AAC" transform="translate(98,130)"/>
<path d="M0 0 C-0.03287583 2.72869407 -0.56397771 5.2966618 -1 8 C-1.66 8 -2.32 8 -3 8 C-3.0825 8.515625 -3.165 9.03125 -3.25 9.5625 C-4.32140225 13.04455732 -6.13523605 15.87200885 -8 19 C-9.0625 17.1875 -9.0625 17.1875 -10 15 C-9.505 13.515 -9.505 13.515 -9 12 C-8.01 12 -7.02 12 -6 12 C-6 11.34 -6 10.68 -6 10 C-5.34 10 -4.68 10 -4 10 C-4.495 8.02 -4.495 8.02 -5 6 C-6.32 6 -7.64 6 -9 6 C-9.042721 4.33388095 -9.04063832 2.66617115 -9 1 C-8.67 0.67 -8.34 0.34 -8 0 C-29.45 -0.33 -50.9 -0.66 -73 -1 C-73 -1.33 -73 -1.66 -73 -2 C-65.07175595 -2.15451654 -57.14342855 -2.30268738 -49.214921 -2.4429636 C-45.53261934 -2.50830827 -41.85038253 -2.57576262 -38.16821289 -2.64819336 C-34.60861443 -2.71813283 -31.04895281 -2.78232807 -27.48917961 -2.84269524 C-25.48356321 -2.87816078 -23.47805218 -2.91943346 -21.47254944 -2.96083069 C-3.2559174 -3.2559174 -3.2559174 -3.2559174 0 0 Z " fill="#F99EB0" transform="translate(403,132)"/>
<path d="M0 0 C1.9375 0.75 1.9375 0.75 4 2 C4.5625 3.9375 4.5625 3.9375 5 6 C6.47890069 7.73026102 6.47890069 7.73026102 8 9 C7.67 9.66 7.34 10.32 7 11 C7.8971875 11.1546875 7.8971875 11.1546875 8.8125 11.3125 C11.28243264 12.08876455 12.32251235 13.07088921 14 15 C13.67 14.01 13.34 13.02 13 12 C15.97 12.495 15.97 12.495 19 13 C18.67 11.68 18.34 10.36 18 9 C18.66 9 19.32 9 20 9 C20.75 10.75 20.75 10.75 21 13 C19.09323022 15.56680547 17.4897169 16.78653366 14.5625 18.0625 C12 18 12 18 9.625 16.25 C0 5.39496805 0 5.39496805 0 0 Z " fill="#F17188" transform="translate(289,281)"/>
<path d="M0 0 C0 3.82132958 -1.13008718 5.52018109 -3.37109375 8.52734375 C-5.33889449 10.30638662 -6.4340072 10.59769481 -9.0625 10.75 C-12.46258023 10.4671956 -12.93494021 10.06505979 -15.5 7.5 C-15.995 6.675 -16.49 5.85 -17 5 C-16.34 3.68 -15.68 2.36 -15 1 C-14.34 1.33 -13.68 1.66 -13 2 C-12.375 5.0625 -12.375 5.0625 -12 8 C-11.34 7.34 -10.68 6.68 -10 6 C-6.42307692 3 -6.42307692 3 -3 3 C-1.31201173 1.56249809 -1.31201173 1.56249809 0 0 Z " fill="#F12E50" transform="translate(259,373)"/>
<path d="M0 0 C3.65102499 3.42509192 6.01122269 7.51622529 8.625 11.75 C9.12773437 12.53632813 9.63046875 13.32265625 10.1484375 14.1328125 C13.06133626 18.84669706 14.68809951 22.44520078 15 28 C14.34 27.34 13.68 26.68 13 26 C13 24.68 13 23.36 13 22 C12.01 22 11.02 22 10 22 C10 20.35 10 18.7 10 17 C9.34 17 8.68 17 8 17 C7.67 15.35 7.34 13.7 7 12 C6.34 12 5.68 12 5 12 C4.34 11.01 3.68 10.02 3 9 C0.94996045 7.80767387 0.94996045 7.80767387 -1 7 C-0.67 4.69 -0.34 2.38 0 0 Z " fill="#ED6A80" transform="translate(275,294)"/>
<path d="M0 0 C2.99324263 1.0975223 3.84610901 1.67682892 5.25 4.625 C5.4975 5.40875 5.745 6.1925 6 7 C6.66 6.67 7.32 6.34 8 6 C11 12.5 11 12.5 11 17 C11.639375 17.185625 12.27875 17.37125 12.9375 17.5625 C15 19 15 19 15.75 22.625 C15.87375 24.295625 15.87375 24.295625 16 26 C12.78016905 23.04085558 10.69758422 20.05666285 8.5625 16.25 C6.47298249 12.56632474 4.35725304 8.93447488 2.0625 5.375 C0 2 0 2 0 0 Z " fill="#F06482" transform="translate(117,169)"/>
<path d="M0 0 C0.85801675 3.12006093 1.15565178 4.91826192 0 8 C-0.96457834 9.35917857 -1.96854629 10.69084721 -3 12 C-3.495 12.9075 -3.99 13.815 -4.5 14.75 C-5.2425 15.86375 -5.2425 15.86375 -6 17 C-6.99 17 -7.98 17 -9 17 C-7.68925635 12.53817564 -5.92933989 9.00381243 -3.375 5.125 C-2.74335938 4.15820312 -2.11171875 3.19140625 -1.4609375 2.1953125 C-0.73777344 1.10863281 -0.73777344 1.10863281 0 0 Z " fill="#F0748D" transform="translate(296,177)"/>
<path d="M0 0 C0.8971875 0.99 0.8971875 0.99 1.8125 2 C3.87501834 4.3373846 3.87501834 4.3373846 7 4 C7.28875 4.639375 7.5775 5.27875 7.875 5.9375 C8.82823451 8.15206079 8.82823451 8.15206079 11 9 C11 11.66666667 11 14.33333333 11 17 C11.66 17.33 12.32 17.66 13 18 C12.01 18 11.02 18 10 18 C8.30779514 15.58638148 6.8276873 13.23907495 5.375 10.6875 C4.96765625 9.99720703 4.5603125 9.30691406 4.140625 8.59570312 C2.46632032 5.72665453 1.05522835 3.16568504 0 0 Z " fill="#F1748B" transform="translate(172,260)"/>
<path d="M0 0 C0.99 0 1.98 0 3 0 C3.9199404 7.0528764 0.8742174 11.26938677 -3 17 C-4.43088528 14.13822943 -3.59991697 12.06624227 -3 9 C-2.34 9 -1.68 9 -1 9 C-1.66 7.68 -2.32 6.36 -3 5 C-2.505 4.360625 -2.01 3.72125 -1.5 3.0625 C0.09802862 1.29025661 0.09802862 1.29025661 0 0 Z " fill="#F24364" transform="translate(348,218)"/>
<path d="M0 0 C0.33 1.32 0.66 2.64 1 4 C0.34 4 -0.32 4 -1 4 C-1 5.32 -1 6.64 -1 8 C-0.34 8.33 0.32 8.66 1 9 C-0.375 11 -0.375 11 -2 13 C-2.66 13 -3.32 13 -4 13 C-5.37310707 14.29233607 -6.71034824 15.62437146 -8 17 C-8 14 -8 14 -7 11 C-6.34 11 -5.68 11 -5 11 C-4.9175 10.484375 -4.835 9.96875 -4.75 9.4375 C-3.67859775 5.95544268 -1.86476395 3.12799115 0 0 Z " fill="#F06B86" transform="translate(318,140)"/>
<path d="M0 0 C1.11375 0.495 1.11375 0.495 2.25 1 C5.13883312 2.22782871 5.13883312 2.22782871 9 2 C8.49800802 5.72908331 7.95792977 9.36147686 7 13 C5.82786955 11.21190303 4.66244474 9.41940875 3.5 7.625 C2.8503125 6.62726563 2.200625 5.62953125 1.53125 4.6015625 C0 2 0 2 0 0 Z " fill="#F24665" transform="translate(223,344)"/>
<path d="M0 0 C0.33 0.66 0.66 1.32 1 2 C0.21142578 3.78759766 0.21142578 3.78759766 -1.0546875 5.9140625 C-1.72951172 7.05488281 -1.72951172 7.05488281 -2.41796875 8.21875 C-2.89878906 9.0128125 -3.37960937 9.806875 -3.875 10.625 C-4.34808594 11.42679687 -4.82117188 12.22859375 -5.30859375 13.0546875 C-7.89309774 17.38428392 -7.89309774 17.38428392 -9 19 C-9.33 19 -9.66 19 -10 19 C-10 17.35 -10 15.7 -10 14 C-9.34 14 -8.68 14 -8 14 C-8 12.35 -8 10.7 -8 9 C-7.34 9 -6.68 9 -6 9 C-6 8.34 -6 7.68 -6 7 C-5.34 7 -4.68 7 -4 7 C-4 5.35 -4 3.7 -4 2 C-2.68 1.34 -1.36 0.68 0 0 Z " fill="#EB7386" transform="translate(325,265)"/>
<path d="M0 0 C2.29017186 2.14913488 4.01315589 4.34518412 5.6875 7 C6.34298828 8.0209375 6.34298828 8.0209375 7.01171875 9.0625 C8 11 8 11 8 14 C8.66 14 9.32 14 10 14 C10 14.99 10 15.98 10 17 C6.02046962 15.67348987 4.59728815 14.3298566 2 11 C0.99881667 7.36815639 0.43863592 3.73822554 0 0 Z " fill="#ED7E8F" transform="translate(218,200)"/>
<path d="M0 0 C0 4.09459203 -1.96927276 6.76750835 -4 10.1875 C-4.57234375 11.16879883 -4.57234375 11.16879883 -5.15625 12.16992188 C-6.09838932 13.78333545 -7.04844266 15.39212298 -8 17 C-8.33 17 -8.66 17 -9 17 C-9 15.35 -9 13.7 -9 12 C-8.34 12 -7.68 12 -7 12 C-7 10.68 -7 9.36 -7 8 C-6.34 8 -5.68 8 -5 8 C-5 6.68 -5 5.36 -5 4 C-4.34 3.67 -3.68 3.34 -3 3 C-3 2.34 -3 1.68 -3 1 C-2.01 0.67 -1.02 0.34 0 0 Z " fill="#EB7C90" transform="translate(276,344)"/>
<path d="M0 0 C0.33 0 0.66 0 1 0 C1 1.98 1 3.96 1 6 C0.360625 6.226875 -0.27875 6.45375 -0.9375 6.6875 C-3.25653741 7.83913693 -3.25653741 7.83913693 -3.6875 10.5 C-3.790625 11.325 -3.89375 12.15 -4 13 C-4.33 13.66 -4.66 14.32 -5 15 C-5.99 15 -6.98 15 -8 15 C-6.62859834 11.32305352 -4.96304199 8.04681411 -2.9375 4.6875 C-2.41027344 3.80449219 -1.88304687 2.92148438 -1.33984375 2.01171875 C-0.89769531 1.34785156 -0.45554687 0.68398437 0 0 Z " fill="#ED8498" transform="translate(282,200)"/>
<path d="M0 0 C6.875 3.875 6.875 3.875 8 5 C8.04063832 6.66617115 8.042721 8.33388095 8 10 C7.01 10 6.02 10 5 10 C3.61328125 8.3203125 3.61328125 8.3203125 2.3125 6.125 C1.87550781 5.40570313 1.43851563 4.68640625 0.98828125 3.9453125 C0 2 0 2 0 0 Z " fill="#F06781" transform="translate(198,303)"/>
<path d="M0 0 C0.99 0.33 1.98 0.66 3 1 C3 1.99 3 2.98 3 4 C3.66 4 4.32 4 5 4 C5 4.66 5 5.32 5 6 C6.32 5.67 7.64 5.34 9 5 C9.33 6.32 9.66 7.64 10 9 C8.35 9.33 6.7 9.66 5 10 C4.15801693 8.90241493 3.32669329 7.79664683 2.5 6.6875 C2.0359375 6.07261719 1.571875 5.45773438 1.09375 4.82421875 C0 3 0 3 0 0 Z " fill="#F1667F" transform="translate(164,246)"/>
<path d="M0 0 C4.20763224 1.5027258 5.8027758 4.23332995 8 8 C8 8.66 8 9.32 8 10 C8.66 10 9.32 10 10 10 C10 11.98 10 13.96 10 16 C9.34 15.67 8.68 15.34 8 15 C8 14.01 8 13.02 8 12 C7.34 12 6.68 12 6 12 C4.4921875 9.8828125 4.4921875 9.8828125 2.875 7.125 C2.33617187 6.22007812 1.79734375 5.31515625 1.2421875 4.3828125 C0 2 0 2 0 0 Z " fill="#EE8094" transform="translate(266,244)"/>
<path d="M0 0 C0.66 0.33 1.32 0.66 2 1 C2.40729228 3.32156597 2.74438677 5.6568787 3 8 C5.64 7.67 8.28 7.34 11 7 C10.67 7.66 10.34 8.32 10 9 C4.71502591 9.44041451 4.71502591 9.44041451 2 9 C-0.5 6.5 -0.5 6.5 -2 4 C-1.34 2.68 -0.68 1.36 0 0 Z " fill="#EE6980" transform="translate(244,374)"/>
<path d="M0 0 C0.66 0 1.32 0 2 0 C3.0076952 1.7664657 4.00591714 3.53833823 5 5.3125 C5.8353125 6.79169922 5.8353125 6.79169922 6.6875 8.30078125 C8 11 8 11 8 14 C7.443125 13.319375 6.88625 12.63875 6.3125 11.9375 C5.549375 11.298125 4.78625 10.65875 4 10 C1.29294488 10.14025199 1.29294488 10.14025199 -1 11 C-0.34 10.01 0.32 9.02 1 8 C1.38499891 6.34450469 1.72793135 4.6777567 2 3 C1.34 3 0.68 3 0 3 C0 2.01 0 1.02 0 0 Z " fill="#F27C92" transform="translate(234,227)"/>
<path d="M0 0 C0.99 0.495 0.99 0.495 2 1 C2 1.66 2 2.32 2 3 C3.98 3 5.96 3 8 3 C7.625 5.9375 7.625 5.9375 7 9 C6.01 9.495 6.01 9.495 5 10 C4.16121545 8.71186658 3.32913217 7.41936744 2.5 6.125 C2.0359375 5.40570313 1.571875 4.68640625 1.09375 3.9453125 C0 2 0 2 0 0 Z " fill="#F26A86" transform="translate(278,263)"/>
<path d="M0 0 C3.87992315 1.47169499 5.22480768 3.28823424 7 7 C7.79268146 9.65375966 8.40314312 12.29118799 9 15 C5.9083091 12.47043472 5.09068668 9.77545388 4 6 C3.34 6 2.68 6 2 6 C1.34 4.02 0.68 2.04 0 0 Z " fill="#F090A1" transform="translate(147,218)"/>
<path d="M0 0 C1.32 0.33 2.64 0.66 4 1 C4 2.32 4 3.64 4 5 C4.99 5.33 5.98 5.66 7 6 C6.67 6.99 6.34 7.98 6 9 C6.66 9 7.32 9 8 9 C7.67 10.32 7.34 11.64 7 13 C5.82786955 11.21190303 4.66244474 9.41940875 3.5 7.625 C2.8503125 6.62726563 2.200625 5.62953125 1.53125 4.6015625 C0 2 0 2 0 0 Z " fill="#EE738D" transform="translate(133,195)"/>
<path d="M0 0 C2.30104014 2.12251117 3.81894459 4.15548556 5.25 6.9375 C5.78367187 7.94103516 5.78367187 7.94103516 6.328125 8.96484375 C7.12634 11.38269269 6.82707306 12.63011757 6 15 C5.67 13.02 5.34 11.04 5 9 C4.01 9 3.02 9 2 9 C2 7.35 2 5.7 2 4 C1.34 4 0.68 4 0 4 C0 2.68 0 1.36 0 0 Z " fill="#F2A3B3" transform="translate(283,307)"/>
<path d="M0 0 C3.33511388 2.9901021 5.21521119 5.89498574 7 10 C7 10.66 7 11.32 7 12 C6.01 11.67 5.02 11.34 4 11 C3.3125 8.9375 3.3125 8.9375 3 7 C2.34 7 1.68 7 1 7 C0.67 4.69 0.34 2.38 0 0 Z " fill="#ED8698" transform="translate(258,266)"/>
<path d="M0 0 C0.66 0.33 1.32 0.66 2 1 C2 1.66 2 2.32 2 3 C1.34 3 0.68 3 0 3 C0.33 3.66 0.66 4.32 1 5 C1.039992 6.99960012 1.04346799 9.00047242 1 11 C0.34 10.67 -0.32 10.34 -1 10 C-1.6328125 7.93359375 -1.6328125 7.93359375 -2.125 5.4375 C-2.29257813 4.61121094 -2.46015625 3.78492188 -2.6328125 2.93359375 C-2.75398437 2.29550781 -2.87515625 1.65742188 -3 1 C-2.01 0.67 -1.02 0.34 0 0 Z " fill="#F03F61" transform="translate(157,225)"/>
<path d="M0 0 C0.66 0.66 1.32 1.32 2 2 C1.625 4.625 1.625 4.625 1 7 C0.01 7 -0.98 7 -2 7 C-2.33 7.99 -2.66 8.98 -3 10 C-3.66 9.67 -4.32 9.34 -5 9 C-3.35 6.03 -1.7 3.06 0 0 Z " fill="#EC5E7B" transform="translate(308,157)"/>
<path d="M0 0 C2.94721162 2.74395564 5.19168608 5.38337216 7 9 C6.67 9.66 6.34 10.32 6 11 C4 9.625 4 9.625 2 8 C2 7.34 2 6.68 2 6 C1.34 5.67 0.68 5.34 0 5 C0 3.35 0 1.7 0 0 Z " fill="#EF8797" transform="translate(187,149)"/>
<path d="M0 0 C1.9375 0.75 1.9375 0.75 4 2 C4.5625 3.9375 4.5625 3.9375 5 6 C5.804375 6.7425 5.804375 6.7425 6.625 7.5 C7.07875 7.995 7.5325 8.49 8 9 C7.5859375 11.09375 7.5859375 11.09375 7 13 C5.82786955 11.21190303 4.66244474 9.41940875 3.5 7.625 C2.8503125 6.62726563 2.200625 5.62953125 1.53125 4.6015625 C0 2 0 2 0 0 Z " fill="#F4A6B4" transform="translate(209,321)"/>
<path d="M0 0 C1.53445094 3.06890187 0.54984289 5.70094266 0 9 C0.66 9 1.32 9 2 9 C2 9.66 2 10.32 2 11 C0.68 10.67 -0.64 10.34 -2 10 C-2.83241855 6.67032582 -3.2757381 4.24733335 -2 1 C-1.34 0.67 -0.68 0.34 0 0 Z " fill="#E6627A" transform="translate(265,231)"/>
<path d="M0 0 C2.0625 0.4375 2.0625 0.4375 4 1 C2.1875 4 2.1875 4 0 7 C-0.99 7 -1.98 7 -3 7 C-1.125 1.125 -1.125 1.125 0 0 Z " fill="#F05D79" transform="translate(290,187)"/>
<path d="M0 0 C0 4.24645065 -1.81750806 6.38524772 -4 10 C-5.0625 8.1875 -5.0625 8.1875 -6 6 C-5.67 5.01 -5.34 4.02 -5 3 C-4.01 3 -3.02 3 -2 3 C-2 2.34 -2 1.68 -2 1 C-1.34 0.67 -0.68 0.34 0 0 Z " fill="#ED7D8F" transform="translate(399,141)"/>
<path d="M0 0 C1.98 1.65 3.96 3.3 6 5 C5.67 5.99 5.34 6.98 5 8 C5.99 8 6.98 8 8 8 C7.34 9.32 6.68 10.64 6 12 C4.99466333 10.37829621 3.99588093 8.75252763 3 7.125 C2.443125 6.22007812 1.88625 5.31515625 1.3125 4.3828125 C0 2 0 2 0 0 Z " fill="#F398AA" transform="translate(235,364)"/>
<path d="M0 0 C1.9375 0.75 1.9375 0.75 4 2 C4.5625 3.9375 4.5625 3.9375 5 6 C5.804375 6.7425 5.804375 6.7425 6.625 7.5 C7.07875 7.995 7.5325 8.49 8 9 C7.5859375 11.09375 7.5859375 11.09375 7 13 C5.82786955 11.21190303 4.66244474 9.41940875 3.5 7.625 C2.8503125 6.62726563 2.200625 5.62953125 1.53125 4.6015625 C0 2 0 2 0 0 Z " fill="#F49BAE" transform="translate(289,281)"/>
<path d="M0 0 C6 4 6 4 6.6875 6.625 C6.790625 7.40875 6.89375 8.1925 7 9 C6.01 9 5.02 9 4 9 C0 2.25 0 2.25 0 0 Z " fill="#EE728A" transform="translate(217,334)"/>
<path d="M0 0 C0.99 0.33 1.98 0.66 3 1 C3 2.32 3 3.64 3 5 C4.32 5.33 5.64 5.66 7 6 C6.67 7.32 6.34 8.64 6 10 C4 8.1875 4 8.1875 2 6 C2 5.01 2 4.02 2 3 C1.34 3 0.68 3 0 3 C0 2.01 0 1.02 0 0 Z " fill="#EE7A92" transform="translate(141,208)"/>
<path d="M0 0 C2.79872437 2.52788007 4.45773019 4.20411134 5 8 C3.02 7.34 1.04 6.68 -1 6 C-0.67 4.02 -0.34 2.04 0 0 Z " fill="#EF7287" transform="translate(213,192)"/>
<path d="M0 0 C0.33 0 0.66 0 1 0 C1 1.98 1 3.96 1 6 C1.66 6.33 2.32 6.66 3 7 C3.625 9.5625 3.625 9.5625 4 12 C3.34 12 2.68 12 2 12 C1.27494442 10.57086153 0.57041565 9.13129342 -0.125 7.6875 C-0.51945312 6.88699219 -0.91390625 6.08648437 -1.3203125 5.26171875 C-1.54460937 4.51535156 -1.76890625 3.76898438 -2 3 C-1.34 2.01 -0.68 1.02 0 0 Z " fill="#E97E93" transform="translate(98,132)"/>
<path d="M0 0 C0.99 0 1.98 0 3 0 C2.43628586 3.26954202 1.50037734 4.82575883 -1 7 C-1 6.01 -1 5.02 -1 4 C-1.66 3.67 -2.32 3.34 -3 3 C-2.34 3 -1.68 3 -1 3 C-0.67 2.01 -0.34 1.02 0 0 Z " fill="#F1647E" transform="translate(356,209)"/>
<path d="M0 0 C2.4375 1.0625 2.4375 1.0625 5 3 C5.8125 6.6875 5.8125 6.6875 6 10 C2.51668565 6.98112756 1.20842856 4.43090471 0 0 Z " fill="#F29BAB" transform="translate(127,185)"/>
<path d="M0 0 C1.890625 0.6796875 1.890625 0.6796875 4 2 C5.046875 4.3828125 5.046875 4.3828125 5.75 7.125 C5.99234375 8.03507813 6.2346875 8.94515625 6.484375 9.8828125 C6.73960938 10.93082031 6.73960938 10.93082031 7 12 C3.79390698 8.99601026 2.04406702 5.87667883 0 2 C0 1.34 0 0.68 0 0 Z " fill="#F3AAB9" transform="translate(108,154)"/>
<path d="M0 0 C0.99 0.33 1.98 0.66 3 1 C3 1.66 3 2.32 3 3 C3.66 3.33 4.32 3.66 5 4 C5 5.65 5 7.3 5 9 C2.9754262 7.06745228 1.57894208 5.36841312 0 3 C0 2.01 0 1.02 0 0 Z " fill="#F290A4" transform="translate(192,292)"/>
<path d="M0 0 C2.4375 0.6875 2.4375 0.6875 5 2 C5.8125 4.625 5.8125 4.625 6 7 C5.01 7 4.02 7 3 7 C3 6.01 3 5.02 3 4 C2.34 4 1.68 4 1 4 C0.67 2.68 0.34 1.36 0 0 Z " fill="#EE788D" transform="translate(284,273)"/>
<path d="M0 0 C0.99 0 1.98 0 3 0 C3.28875 1.134375 3.5775 2.26875 3.875 3.4375 C4.24625 4.613125 4.6175 5.78875 5 7 C5.66 7.33 6.32 7.66 7 8 C6.01 8 5.02 8 4 8 C0 2.74285714 0 2.74285714 0 0 Z " fill="#ED8A9C" transform="translate(102,145)"/>
<path d="M0 0 C2.5 1.25 2.5 1.25 5 3 C5 4.32 5 5.64 5 7 C5.66 7.33 6.32 7.66 7 8 C6.01 8 5.02 8 4 8 C0 2.74285714 0 2.74285714 0 0 Z " fill="#F19CAB" transform="translate(184,280)"/>
<path d="M0 0 C0.33 0.66 0.66 1.32 1 2 C0.22265625 3.7265625 0.22265625 3.7265625 -0.9375 5.625 C-1.618125 6.73875 -2.29875 7.8525 -3 9 C-4.43088528 6.13822943 -3.59991697 4.06624227 -3 1 C-2.01 0.67 -1.02 0.34 0 0 Z " fill="#F29BAA" transform="translate(348,226)"/>
<path d="M0 0 C1 2 1 2 0.3125 4.5 C-1.15567038 7.29651501 -2.09303901 7.93411431 -5 9 C-3.7508258 5.54074837 -2.32472205 2.85306797 0 0 Z " fill="#EF859E" transform="translate(271,219)"/>
<path d="M0 0 C0.33 0.66 0.66 1.32 1 2 C0.22265625 3.7265625 0.22265625 3.7265625 -0.9375 5.625 C-1.618125 6.73875 -2.29875 7.8525 -3 9 C-4.43088528 6.13822943 -3.59991697 4.06624227 -3 1 C-2.01 0.67 -1.02 0.34 0 0 Z " fill="#F090A3" transform="translate(376,179)"/>
<path d="M0 0 C1.875 0.5 1.875 0.5 4 2 C4.98494554 4.65177645 5.45912382 7.20547307 6 10 C3.38275905 7.63202009 1.67138271 5.10399646 0 2 C0 1.34 0 0.68 0 0 Z " fill="#F18EA2" transform="translate(117,169)"/>
<path d="M0 0 C0 3.90838866 -1.50567876 5.11594107 -4 8 C-4.33 6.35 -4.66 4.7 -5 3 C-4.34 3 -3.68 3 -3 3 C-1.37485532 1.54166642 -1.37485532 1.54166642 0 0 Z " fill="#F07489" transform="translate(259,373)"/>
<path d="M0 0 C1.32 0 2.64 0 4 0 C4.6875 1.8125 4.6875 1.8125 5 4 C3.5625 5.75 3.5625 5.75 2 7 C1.34 4.69 0.68 2.38 0 0 Z " fill="#F57C8E" transform="translate(284,322)"/>
<path d="M0 0 C0.99 0 1.98 0 3 0 C4.42944945 2.35438733 5.08661261 3.48032433 4.625 6.25 C4.41875 6.8275 4.2125 7.405 4 8 C0 2.25 0 2.25 0 0 Z " fill="#EF8598" transform="translate(226,349)"/>
<path d="M0 0 C1.9375 0.8125 1.9375 0.8125 4 2 C4.33 2.99 4.66 3.98 5 5 C3.35 4.67 1.7 4.34 0 4 C0 2.68 0 1.36 0 0 Z " fill="#E95C76" transform="translate(297,292)"/>
<path d="M0 0 C2.50037734 2.17424117 3.43628586 3.73045798 4 7 C3.01 6.67 2.02 6.34 1 6 C-0.1875 3.4375 -0.1875 3.4375 -1 1 C-0.67 0.67 -0.34 0.34 0 0 Z " fill="#EB8999" transform="translate(243,241)"/>
<path d="M0 0 C-0.6875 1.9375 -0.6875 1.9375 -2 4 C-4.625 4.75 -4.625 4.75 -7 5 C-7 4.34 -7 3.68 -7 3 C-4.4385343 0.70351351 -3.52032428 0 0 0 Z " fill="#EE4667" transform="translate(326,135)"/>
</svg>
